<svg width="15" height="15" viewBox="0 0 15 15" fill="none" xmlns="http://www.w3.org/2000/svg">
<path d="M4.90132 12.3261H10.0987C10.3941 12.3261 10.6773 12.2088 10.8862 11.9999C11.0951 11.7911 11.2124 11.5078 11.2124 11.2124V7.87124C11.2124 7.57587 11.0951 7.29259 10.8862 7.08372C10.6773 6.87486 10.3941 6.75752 10.0987 6.75752H4.90132C4.60594 6.75752 4.32266 6.87486 4.1138 7.08372C3.90494 7.29259 3.7876 7.57587 3.7876 7.87124V11.2124C3.7876 11.5078 3.90494 11.7911 4.1138 11.9999C4.32266 12.2088 4.60594 12.3261 4.90132 12.3261Z" stroke="white" stroke-linecap="round" stroke-linejoin="round"/>
<path d="M9.72734 6.30953V4.13889C9.72734 3.54814 9.49267 2.98158 9.07494 2.56386C8.65721 2.14613 8.09066 1.91145 7.4999 1.91145C6.90915 1.91145 6.34259 2.14613 5.92486 2.56386C5.50714 2.98158 5.27246 3.54814 5.27246 4.13889" stroke="white" stroke-linecap="round" stroke-linejoin="round"/>
</svg>
