<svg width="16" height="16" viewBox="0 0 16 16" fill="none" xmlns="http://www.w3.org/2000/svg">
<path d="M3.26614 9.886L2.91259 9.53245L2.76637 9.67867L2.76614 9.88546L3.26614 9.886ZM10.2387 2.91345L10.5922 2.5599C10.4985 2.46613 10.3713 2.41345 10.2387 2.41345C10.1061 2.41345 9.97891 2.46613 9.88514 2.5599L10.2387 2.91345ZM12.7367 5.41148L13.0903 5.76503C13.2855 5.56977 13.2855 5.25319 13.0903 5.05792L12.7367 5.41148ZM5.76417 12.384L5.76381 12.884L5.97113 12.8842L6.11772 12.7376L5.76417 12.384ZM3.26343 12.3822L2.76343 12.3817C2.76328 12.5143 2.81585 12.6416 2.90956 12.7355C3.00326 12.8294 3.13043 12.8822 3.26307 12.8822L3.26343 12.3822ZM3.61969 10.2396L10.5922 3.26701L9.88514 2.5599L2.91259 9.53245L3.61969 10.2396ZM9.88514 3.26701L12.3832 5.76503L13.0903 5.05792L10.5922 2.5599L9.88514 3.26701ZM12.3832 5.05792L5.41061 12.0305L6.11772 12.7376L13.0903 5.76503L12.3832 5.05792ZM5.76452 11.884L3.26378 11.8822L3.26307 12.8822L5.76381 12.884L5.76452 11.884ZM3.76343 12.3828L3.76614 9.88655L2.76614 9.88546L2.76343 12.3817L3.76343 12.3828Z" fill="white"/>
<path d="M8.79443 4.99638L10.6526 6.85455" stroke="white" stroke-linecap="round" stroke-linejoin="round"/>
</svg>
