<svg width="18" height="17" viewBox="0 0 18 17" fill="none" xmlns="http://www.w3.org/2000/svg">
<path d="M6.73315 4.78125C6.59226 4.78125 6.45713 4.72528 6.3575 4.62565C6.25788 4.52602 6.2019 4.3909 6.2019 4.25C6.2019 4.1091 6.25788 3.97398 6.3575 3.87435C6.45713 3.77472 6.59226 3.71875 6.73315 3.71875C6.87405 3.71875 7.00918 3.77472 7.1088 3.87435C7.20843 3.97398 7.2644 4.1091 7.2644 4.25C7.2644 4.3909 7.20843 4.52602 7.1088 4.62565C7.00918 4.72528 6.87405 4.78125 6.73315 4.78125ZM6.73315 9.03125C6.59226 9.03125 6.45713 8.97528 6.3575 8.87565C6.25788 8.77602 6.2019 8.6409 6.2019 8.5C6.2019 8.3591 6.25788 8.22398 6.3575 8.12435C6.45713 8.02472 6.59226 7.96875 6.73315 7.96875C6.87405 7.96875 7.00918 8.02472 7.1088 8.12435C7.20843 8.22398 7.2644 8.3591 7.2644 8.5C7.2644 8.6409 7.20843 8.77602 7.1088 8.87565C7.00918 8.97528 6.87405 9.03125 6.73315 9.03125ZM6.73315 13.2812C6.59226 13.2812 6.45713 13.2253 6.3575 13.1257C6.25788 13.026 6.2019 12.8909 6.2019 12.75C6.2019 12.6091 6.25788 12.474 6.3575 12.3743C6.45713 12.2747 6.59226 12.2187 6.73315 12.2187C6.87405 12.2187 7.00918 12.2747 7.1088 12.3743C7.20843 12.474 7.2644 12.6091 7.2644 12.75C7.2644 12.8909 7.20843 13.026 7.1088 13.1257C7.00918 13.2253 6.87405 13.2812 6.73315 13.2812Z" stroke="currentColor" stroke-width="1.275" stroke-linecap="round" stroke-linejoin="round"/>
<path d="M11.2668 4.78125C11.1259 4.78125 10.9908 4.72528 10.8912 4.62565C10.7916 4.52602 10.7356 4.3909 10.7356 4.25C10.7356 4.1091 10.7916 3.97398 10.8912 3.87435C10.9908 3.77472 11.1259 3.71875 11.2668 3.71875C11.4077 3.71875 11.5429 3.77472 11.6425 3.87435C11.7421 3.97398 11.7981 4.1091 11.7981 4.25C11.7981 4.3909 11.7421 4.52602 11.6425 4.62565C11.5429 4.72528 11.4077 4.78125 11.2668 4.78125ZM11.2668 9.03125C11.1259 9.03125 10.9908 8.97528 10.8912 8.87565C10.7916 8.77602 10.7356 8.6409 10.7356 8.5C10.7356 8.3591 10.7916 8.22398 10.8912 8.12435C10.9908 8.02472 11.1259 7.96875 11.2668 7.96875C11.4077 7.96875 11.5429 8.02472 11.6425 8.12435C11.7421 8.22398 11.7981 8.3591 11.7981 8.5C11.7981 8.6409 11.7421 8.77602 11.6425 8.87565C11.5429 8.97528 11.4077 9.03125 11.2668 9.03125ZM11.2668 13.2812C11.1259 13.2812 10.9908 13.2253 10.8912 13.1257C10.7916 13.026 10.7356 12.8909 10.7356 12.75C10.7356 12.6091 10.7916 12.474 10.8912 12.3743C10.9908 12.2747 11.1259 12.2187 11.2668 12.2187C11.4077 12.2187 11.5429 12.2747 11.6425 12.3743C11.7421 12.474 11.7981 12.6091 11.7981 12.75C11.7981 12.8909 11.7421 13.026 11.6425 13.1257C11.5429 13.2253 11.4077 13.2812 11.2668 13.2812Z" stroke="currentColor" stroke-width="1.275" stroke-linecap="round" stroke-linejoin="round"/>
</svg>
