<svg width="15" height="15" viewBox="0 0 15 15" fill="none" xmlns="http://www.w3.org/2000/svg">
<path fill-rule="evenodd" clip-rule="evenodd" d="M1.9209 2.42068C1.9209 2.14454 2.14476 1.92068 2.4209 1.92068H3.69073C3.96687 1.92068 4.19073 2.14454 4.19073 2.42068C4.19073 2.69683 3.96687 2.92068 3.69073 2.92068H2.9209V3.69051C2.9209 3.96665 2.69704 4.19051 2.4209 4.19051C2.14476 4.19051 1.9209 3.96665 1.9209 3.69051V2.42068ZM5.73038 2.42068C5.73038 2.14454 5.95424 1.92068 6.23038 1.92068H8.77003C9.04618 1.92068 9.27003 2.14454 9.27003 2.42068C9.27003 2.69683 9.04618 2.92068 8.77003 2.92068H6.23038C5.95424 2.92068 5.73038 2.69683 5.73038 2.42068ZM10.8097 2.42068C10.8097 2.14454 11.0335 1.92068 11.3097 1.92068H12.5795C12.8557 1.92068 13.0795 2.14454 13.0795 2.42068V3.69051C13.0795 3.96665 12.8557 4.19051 12.5795 4.19051C12.3034 4.19051 12.0795 3.96665 12.0795 3.69051V2.92068H11.3097C11.0335 2.92068 10.8097 2.69683 10.8097 2.42068ZM2.4209 5.73017C2.69704 5.73017 2.9209 5.95402 2.9209 6.23017V8.76982C2.9209 9.04596 2.69704 9.26982 2.4209 9.26982C2.14476 9.26982 1.9209 9.04596 1.9209 8.76982V6.23017C1.9209 5.95402 2.14476 5.73017 2.4209 5.73017ZM12.5795 5.73017C12.8557 5.73017 13.0795 5.95402 13.0795 6.23017V8.76982C13.0795 9.04596 12.8557 9.26982 12.5795 9.26982C12.3034 9.26982 12.0795 9.04596 12.0795 8.76982V6.23017C12.0795 5.95402 12.3034 5.73017 12.5795 5.73017ZM2.4209 10.8095C2.69704 10.8095 2.9209 11.0333 2.9209 11.3095V12.0793H3.69073C3.96687 12.0793 4.19073 12.3032 4.19073 12.5793C4.19073 12.8554 3.96687 13.0793 3.69073 13.0793H2.4209C2.14476 13.0793 1.9209 12.8554 1.9209 12.5793V11.3095C1.9209 11.0333 2.14476 10.8095 2.4209 10.8095ZM12.5795 10.8095C12.8557 10.8095 13.0795 11.0333 13.0795 11.3095V12.5793C13.0795 12.8554 12.8557 13.0793 12.5795 13.0793H11.3097C11.0335 13.0793 10.8097 12.8554 10.8097 12.5793C10.8097 12.3032 11.0335 12.0793 11.3097 12.0793H12.0795V11.3095C12.0795 11.0333 12.3034 10.8095 12.5795 10.8095ZM5.73038 12.5793C5.73038 12.3032 5.95424 12.0793 6.23038 12.0793H8.77003C9.04618 12.0793 9.27003 12.3032 9.27003 12.5793C9.27003 12.8554 9.04618 13.0793 8.77003 13.0793H6.23038C5.95424 13.0793 5.73038 12.8554 5.73038 12.5793Z" fill="white"/>
</svg>
