<svg width="25" height="25" viewBox="0 0 25 25" fill="none" xmlns="http://www.w3.org/2000/svg">
<path d="M4.61011 16.2288L3.90301 15.5217L3.61056 15.8141L3.61011 16.2277L4.61011 16.2288ZM16.231 4.60785L16.9381 3.90075C16.7506 3.71321 16.4962 3.60785 16.231 3.60785C15.9658 3.60785 15.7115 3.71321 15.5239 3.90075L16.231 4.60785ZM20.3944 8.77123L21.1015 9.47834C21.492 9.08781 21.492 8.45465 21.1015 8.06412L20.3944 8.77123ZM8.77349 20.3921L8.77278 21.3921L9.18741 21.3924L9.48059 21.0993L8.77349 20.3921ZM4.60559 20.3892L3.60559 20.3881C3.6053 20.6534 3.71043 20.9079 3.89785 21.0956C4.08526 21.2834 4.3396 21.389 4.60488 21.3892L4.60559 20.3892ZM4.61011 16.2288L5.31722 16.9359L16.9381 5.31496L16.231 4.60785L15.5239 3.90075L3.90301 15.5217L4.61011 16.2288ZM16.231 4.60785L15.5239 5.31496L19.6873 9.47834L20.3944 8.77123L21.1015 8.06412L16.9381 3.90075L16.231 4.60785ZM20.3944 8.77123L19.6873 8.06412L8.06638 19.685L8.77349 20.3921L9.48059 21.0993L21.1015 9.47834L20.3944 8.77123ZM8.77349 20.3921L8.7742 19.3921L4.6063 19.3892L4.60559 20.3892L4.60488 21.3892L8.77278 21.3921L8.77349 20.3921ZM4.60559 20.3892L5.60559 20.3903L5.61011 16.2299L4.61011 16.2288L3.61011 16.2277L3.60559 20.3881L4.60559 20.3892Z" fill="currentColor"/>
<path d="M16.9212 11.1763L13.8242 8.07939L16.2545 5.48775L19.4321 8.66537L16.9212 11.1763Z" fill="currentColor" stroke="currentColor" stroke-width="2" stroke-linecap="round" stroke-linejoin="round"/>
</svg>
