<svg width="22" height="22" viewBox="0 0 22 22" fill="none" xmlns="http://www.w3.org/2000/svg">
<path d="M6.1875 11.5C6.1875 11.6823 6.11507 11.8572 5.98614 11.9861C5.8572 12.1151 5.68234 12.1875 5.5 12.1875C5.31766 12.1875 5.1428 12.1151 5.01386 11.9861C4.88493 11.8572 4.8125 11.6823 4.8125 11.5C4.8125 11.3177 4.88493 11.1428 5.01386 11.0139C5.1428 10.8849 5.31766 10.8125 5.5 10.8125C5.68234 10.8125 5.8572 10.8849 5.98614 11.0139C6.11507 11.1428 6.1875 11.3177 6.1875 11.5ZM11.6875 11.5C11.6875 11.6823 11.6151 11.8572 11.4861 11.9861C11.3572 12.1151 11.1823 12.1875 11 12.1875C10.8177 12.1875 10.6428 12.1151 10.5139 11.9861C10.3849 11.8572 10.3125 11.6823 10.3125 11.5C10.3125 11.3177 10.3849 11.1428 10.5139 11.0139C10.6428 10.8849 10.8177 10.8125 11 10.8125C11.1823 10.8125 11.3572 10.8849 11.4861 11.0139C11.6151 11.1428 11.6875 11.3177 11.6875 11.5ZM17.1875 11.5C17.1875 11.6823 17.1151 11.8572 16.9861 11.9861C16.8572 12.1151 16.6823 12.1875 16.5 12.1875C16.3177 12.1875 16.1428 12.1151 16.0139 11.9861C15.8849 11.8572 15.8125 11.6823 15.8125 11.5C15.8125 11.3177 15.8849 11.1428 16.0139 11.0139C16.1428 10.8849 16.3177 10.8125 16.5 10.8125C16.6823 10.8125 16.8572 10.8849 16.9861 11.0139C17.1151 11.1428 17.1875 11.3177 17.1875 11.5Z" stroke="currentColor" stroke-width="1" stroke-linecap="round" stroke-linejoin="round"/>
</svg>
